<svg id="Layer_1" enable-background="new 0 0 512 512" height="512" viewBox="0 0 512 512" width="512" xmlns="http://www.w3.org/2000/svg"><g><path d="m491.343 70.987h-31.654c-4.142 0-7.5 3.358-7.5 7.5s3.358 7.5 7.5 7.5h31.654c3.119 0 5.657 2.537 5.657 5.654v39.334h-91c-4.142 0-7.5 3.358-7.5 7.5s3.358 7.5 7.5 7.5h91v214.957h-56.75c-4.142 0-7.5 3.358-7.5 7.5s3.358 7.5 7.5 7.5h56.75v39.334c0 3.118-2.538 5.654-5.657 5.654h-470.686c-3.119 0-5.657-2.537-5.657-5.654v-39.334h390.743c4.142 0 7.5-3.358 7.5-7.5s-3.358-7.5-7.5-7.5h-390.743v-214.957h91c4.142 0 7.5-3.358 7.5-7.5s-3.358-7.5-7.5-7.5h-91v-39.334c0-3.118 2.538-5.654 5.657-5.654h31.387c4.142 0 7.5-3.358 7.5-7.5s-3.358-7.5-7.5-7.5h-31.387c-11.39 0-20.657 9.265-20.657 20.654v323.625c0 11.389 9.267 20.654 20.657 20.654h180.015l-10.118 31.086h-21.009c-14.361 0-26.044 11.682-26.044 26.041 0 10.451 8.503 18.953 18.956 18.953h187.089c10.452 0 18.956-8.502 18.956-18.953 0-14.359-11.684-26.041-26.044-26.041h-21.009l-10.118-31.086h180.015c11.39 0 20.657-9.266 20.657-20.654v-323.625c-.003-11.389-9.27-20.654-20.66-20.654zm-185.671 396.019h-48.757c-4.142 0-7.5 3.358-7.5 7.5s3.358 7.5 7.5 7.5h85.541c6.09 0 11.044 4.953 11.044 11.041 0 2.18-1.774 3.953-3.956 3.953h-187.088c-2.181 0-3.956-1.773-3.956-3.953 0-6.088 4.955-11.041 11.044-11.041h52.76c4.142 0 7.5-3.358 7.5-7.5s-3.358-7.5-7.5-7.5h-15.976l10.118-31.086h79.107z"/><path d="m78.971 85.432 49.529 20.183v158.14c0 3.049 1.846 5.795 4.67 6.945l33.03 13.46v31.737c0 4.142 3.358 7.5 7.5 7.5s7.5-3.358 7.5-7.5v-25.625l71.97 29.328c.907.37 1.869.555 2.83.555s1.923-.185 2.83-.555l120-48.9c2.824-1.15 4.67-3.896 4.67-6.945v-158.14l49.529-20.183c2.824-1.15 4.67-3.896 4.67-6.945s-1.846-5.795-4.67-6.945l-174.199-70.987c-1.814-.739-3.846-.739-5.66 0l-174.199 70.986c-2.824 1.15-4.67 3.896-4.67 6.945s1.846 5.796 4.67 6.946zm87.229 35.546v88.503l-22.7-9.25v-88.503zm-22.7 137.734v-42.285l22.7 9.25v42.285zm112.5 45.845-74.8-30.481v-42.286l71.97 29.328c.907.37 1.869.555 2.83.555s1.923-.185 2.83-.555l109.67-44.69v42.285zm0-288.958 154.325 62.888-80.033 32.613c-3.836 1.563-5.679 5.94-4.115 9.775 1.563 3.836 5.941 5.678 9.775 4.115l32.547-13.263v88.503l-112.499 45.844-74.8-30.481v-88.503l71.97 29.328c.907.37 1.869.555 2.83.555s1.923-.185 2.83-.555l44.598-18.174c3.835-1.563 5.678-5.94 4.115-9.775-1.563-3.837-5.941-5.679-9.776-4.115l-41.767 17.02-62.426-25.439 65.256-26.592c3.836-1.563 5.679-5.94 4.115-9.775-1.563-3.836-5.943-5.68-9.775-4.115l-79.47 32.384-72.025-29.35z"/></g></svg>