<?xml version="1.0" encoding="iso-8859-1"?>
<!-- Generator: Adobe Illustrator 19.0.0, SVG Export Plug-In . SVG Version: 6.00 Build 0)  -->
<svg version="1.1" id="Capa_1" xmlns="http://www.w3.org/2000/svg" xmlns:xlink="http://www.w3.org/1999/xlink" x="0px" y="0px"
	 viewBox="0 0 512 512" style="enable-background:new 0 0 512 512;" xml:space="preserve">
<g>
	<g>
		<path d="M484.118,233.189h-32.948v-5.07h12.673c4.2,0,7.604-3.405,7.604-7.604v-40.555c0-4.199-3.404-7.604-7.604-7.604h-12.673
			v-2.606c0-4.199-3.404-7.604-7.604-7.604h-50.694c-4.2,0-7.604,3.405-7.604,7.604v63.439h-35.484v-22.884v-0.001v-0.01
			c0-10.159-3.954-19.699-11.132-26.878c-7.178-7.178-16.729-11.132-26.888-11.132c-0.335,0-0.662,0.029-0.985,0.071H299.09v-21.992
			c0.577-0.535,1.154-1.073,1.713-1.631c5.82-5.82,10.392-12.602,13.586-20.145c3.305-7.807,4.978-16.109,4.978-24.665v-0.001
			V68.436c0-37.735-30.7-68.436-68.436-68.436c-37.706,0-68.385,30.653-68.434,68.348c-0.003,0.286,0.008,0.571,0.036,0.852
			c0.008,0.08,0.024,0.157,0.034,0.237c0.021,0.163,0.043,0.326,0.074,0.487c0.03,0.151,0.071,0.297,0.109,0.445
			c0.023,0.087,0.041,0.175,0.067,0.262c0.049,0.163,0.108,0.321,0.168,0.48c0.026,0.07,0.049,0.142,0.077,0.211
			c0.062,0.15,0.133,0.295,0.204,0.44c0.037,0.077,0.071,0.155,0.11,0.231c0.066,0.125,0.139,0.242,0.211,0.362
			c0.057,0.093,0.109,0.19,0.17,0.281c0.063,0.094,0.131,0.184,0.198,0.275c0.08,0.11,0.158,0.221,0.244,0.327
			c0.057,0.07,0.119,0.134,0.177,0.202c0.103,0.119,0.207,0.237,0.318,0.351c0.055,0.056,0.115,0.106,0.171,0.159
			c0.121,0.115,0.241,0.229,0.37,0.336c0.072,0.06,0.148,0.113,0.222,0.17c0.119,0.091,0.235,0.185,0.36,0.269
			c0.143,0.097,0.292,0.185,0.441,0.272c0.062,0.037,0.12,0.077,0.184,0.112c0.242,0.133,0.493,0.251,0.75,0.358
			c1.835,0.776,3.644,1.468,5.437,2.112v26.346v0.001c0,8.556,1.673,16.859,4.978,24.665c3.194,7.543,7.766,14.326,13.586,20.145
			c0.56,0.559,1.137,1.096,1.713,1.631v21.921h-12.673c-10.159,0-19.709,3.954-26.888,11.132
			c-7.178,7.178-11.132,16.729-11.132,26.888v0.001v22.884h-35.485v-22.813c0-0.001,0-0.001,0-0.001c0-0.001,0-0.001,0-0.001V179.96
			c0-4.199-3.405-7.604-7.604-7.604H38.02c-4.199,0-7.604,3.405-7.604,7.604v30.416c0,0,0,0,0,0.001v0.001v22.813h-2.533
			c-4.199,0-7.604,3.405-7.604,7.604v30.416c0,4.199,3.405,7.604,7.604,7.604h12.674v225.581c0,4.199,3.405,7.604,7.604,7.604
			h30.416c4.199,0,7.604-3.405,7.604-7.604v-12.674H425.82v12.674c0,4.199,3.405,7.604,7.604,7.604h30.416
			c4.2,0,7.604-3.405,7.604-7.604V278.813h12.673c4.2,0,7.604-3.405,7.604-7.604v-30.416
			C491.722,236.594,488.318,233.189,484.118,233.189z M451.169,187.563h5.069v25.348h-5.069V187.563z M400.475,177.354h35.486
			v55.833h-35.486V177.354z M250.932,15.208c24.12,0,44.532,16.132,51.045,38.169c-10.712-5.28-22.501-0.743-36.133,4.51
			c-17.893,6.895-39.928,15.372-67.889,5.44C200.535,36.365,223.305,15.208,250.932,15.208z M207.843,103.921V81.689
			c26.151,4.752,47.212-3.348,63.47-9.611c10.343-3.986,19.277-7.426,24.017-5.027c3.393,1.716,6.361,6.992,8.83,15.665v21.194v0.01
			c0,12.856-5.008,24.951-14.103,34.056c-9.104,9.094-21.2,14.103-34.056,14.103s-24.951-5.008-34.056-14.103
			C212.851,128.872,207.843,116.777,207.843,103.921z M283.882,160.831v14.429l-12.058,6.028l-10.833-7.472
			c-0.053-0.038-0.105-0.072-0.158-0.108l-0.006-0.004c-0.003-0.002-0.006-0.003-0.009-0.005c-0.289-0.2-0.593-0.374-0.907-0.53
			c-0.072-0.038-0.148-0.069-0.221-0.103c-0.242-0.11-0.489-0.21-0.742-0.295c-0.108-0.037-0.216-0.073-0.325-0.105
			c-0.23-0.066-0.463-0.118-0.701-0.162c-0.12-0.022-0.236-0.051-0.357-0.067c-0.313-0.044-0.632-0.067-0.953-0.072
			c-0.031,0-0.062-0.007-0.093-0.007c-0.004,0-0.007,0.001-0.01,0.001s-0.006-0.001-0.01-0.001c-0.04,0-0.08,0.008-0.121,0.008
			c-0.29,0.005-0.577,0.024-0.862,0.062c-0.152,0.02-0.301,0.054-0.452,0.083c-0.173,0.033-0.347,0.067-0.517,0.113
			c-0.162,0.044-0.32,0.096-0.48,0.15c-0.16,0.055-0.317,0.113-0.472,0.177c-0.15,0.062-0.298,0.128-0.445,0.2
			c-0.17,0.084-0.335,0.177-0.498,0.274c-0.089,0.053-0.185,0.092-0.272,0.15l-12.067,7.785l-12.193-6.097v-14.429
			c1.056,0.518,2.125,1.016,3.214,1.477c7.817,3.305,16.11,4.978,24.667,4.978c8.556,0,16.85-1.673,24.667-4.978
			C281.757,161.848,282.826,161.35,283.882,160.831z M177.427,210.305v-0.01c0.01-6.103,2.383-11.822,6.681-16.12
			s10.027-6.671,16.13-6.681h18.34l18.818,9.409c0.071,0.035,0.145,0.06,0.217,0.093c0.175,0.08,0.352,0.16,0.533,0.228
			c0.116,0.043,0.233,0.075,0.351,0.112c0.162,0.052,0.323,0.106,0.49,0.147c0.196,0.048,0.395,0.08,0.594,0.112
			c0.095,0.016,0.189,0.039,0.285,0.051c0.303,0.038,0.608,0.059,0.917,0.059c0.004,0,0.006-0.001,0.009-0.001
			c0.004,0,0.007,0.001,0.011,0.001c0.213,0,0.423-0.027,0.634-0.046c0.142-0.012,0.288-0.01,0.428-0.03
			c0.154-0.021,0.303-0.065,0.455-0.096c0.203-0.042,0.407-0.075,0.603-0.132c0.071-0.02,0.138-0.053,0.208-0.075
			c0.28-0.089,0.556-0.189,0.821-0.309c0.007-0.003,0.014-0.008,0.021-0.011c0.342-0.157,0.667-0.342,0.98-0.547l11.413-7.359
			l10.522,7.256c0.023,0.017,0.051,0.027,0.075,0.044c0.25,0.169,0.512,0.32,0.782,0.458c0.067,0.034,0.134,0.073,0.202,0.107
			c0.252,0.12,0.514,0.219,0.779,0.31c0.094,0.032,0.186,0.072,0.279,0.101c0.239,0.071,0.486,0.122,0.734,0.169
			c0.121,0.023,0.238,0.059,0.362,0.076c0.29,0.043,0.588,0.059,0.886,0.067c0.07,0.002,0.14,0.016,0.21,0.016
			c0.004,0,0.007-0.001,0.011-0.001c0.003,0,0.006,0.001,0.009,0.001c0.305,0,0.607-0.02,0.907-0.057
			c0.016-0.002,0.03-0.006,0.046-0.008c0.281-0.036,0.561-0.087,0.835-0.154c0.086-0.02,0.169-0.052,0.254-0.076
			c0.199-0.057,0.399-0.114,0.594-0.187c0.107-0.041,0.211-0.09,0.317-0.135c0.144-0.062,0.291-0.115,0.433-0.185l18.675-9.338
			h18.484c0.238,0,0.474-0.014,0.708-0.035c5.836,0.187,11.291,2.514,15.423,6.646c4.298,4.299,6.671,10.027,6.681,16.13v0.001
			v22.884H177.427V210.305z M45.625,187.563h65.901v15.208H45.625V187.563z M45.625,217.981h65.901v15.208H45.625V217.981z
			 M70.974,484.098c0,0.007-0.001,0.013-0.001,0.02s0.001,0.013,0.001,0.02v12.654H55.766V278.813h15.208V484.098z M425.821,476.514
			H86.182V278.813h339.638V476.514z M456.237,496.792h-15.208V278.813h15.208V496.792z M476.514,263.605h-12.673h-30.416H78.578
			H48.162H35.488v-15.208h441.026V263.605z"/>
	</g>
</g>
<g>
	<g>
		<path d="M408.384,306.389c-1.409-1.419-3.376-2.23-5.373-2.23c-1.399,0-2.535-1.136-2.535-2.535c0-1.997-0.811-3.964-2.231-5.373
			c-1.419-1.419-3.376-2.23-5.373-2.23H119.13c-1.997,0-3.954,0.811-5.373,2.23c-1.419,1.409-2.23,3.376-2.23,5.373
			c0,1.399-1.136,2.535-2.535,2.535c-1.997,0-3.964,0.811-5.373,2.23c-1.419,1.409-2.23,3.376-2.23,5.373v49.253
			c0,4.197,3.417,7.604,7.604,7.604c4.197,0,7.604-3.407,7.604-7.604v-43.353c3.69-1.754,6.681-4.745,8.435-8.435h261.941
			c1.754,3.69,4.745,6.681,8.435,8.435v120.001c-3.691,1.754-6.681,4.745-8.435,8.435H125.03c-1.754-3.69-4.745-6.681-8.435-8.435
			v-46.232c0-4.197-3.407-7.604-7.604-7.604c-4.187,0-7.604,3.407-7.604,7.604v52.133c0,1.997,0.811,3.954,2.23,5.373
			c1.409,1.419,3.376,2.231,5.373,2.231c1.399,0,2.535,1.135,2.535,2.535c0,1.997,0.811,3.964,2.23,5.373
			c1.419,1.419,3.376,2.231,5.373,2.231h273.743c1.997,0,3.953-0.811,5.373-2.231c1.419-1.409,2.231-3.376,2.231-5.373
			c0-1.399,1.135-2.535,2.535-2.535c1.997,0,3.953-0.811,5.373-2.231s2.231-3.376,2.231-5.373V311.762
			C410.615,309.765,409.804,307.808,408.384,306.389z"/>
	</g>
</g>
<g>
</g>
<g>
</g>
<g>
</g>
<g>
</g>
<g>
</g>
<g>
</g>
<g>
</g>
<g>
</g>
<g>
</g>
<g>
</g>
<g>
</g>
<g>
</g>
<g>
</g>
<g>
</g>
<g>
</g>
</svg>
