<?xml version="1.0" encoding="UTF-8" standalone="no"?>
<svg
   xmlns:dc="http://purl.org/dc/elements/1.1/"
   xmlns:cc="http://creativecommons.org/ns#"
   xmlns:rdf="http://www.w3.org/1999/02/22-rdf-syntax-ns#"
   xmlns:svg="http://www.w3.org/2000/svg"
   xmlns="http://www.w3.org/2000/svg"
   xmlns:sodipodi="http://sodipodi.sourceforge.net/DTD/sodipodi-0.dtd"
   xmlns:inkscape="http://www.inkscape.org/namespaces/inkscape"
   inkscape:version="1.0 (4035a4fb49, 2020-05-01)"
   sodipodi:docname="cena.baseCompLight.svg"
   version="1.1"
   viewBox="0 0 886.11482 718.43942"
   height="718.43942"
   width="886.11482"
   data-name="Layer 1"
   id="a0abe8dc-3e6b-48ed-b282-1465f1104096">
  <metadata
     id="metadata91">
    <rdf:RDF>
      <cc:Work
         rdf:about="">
        <dc:format>image/svg+xml</dc:format>
        <dc:type
           rdf:resource="http://purl.org/dc/dcmitype/StillImage" />
      </cc:Work>
    </rdf:RDF>
  </metadata>
  <defs
     id="defs89" />
  <sodipodi:namedview
     inkscape:current-layer="a0abe8dc-3e6b-48ed-b282-1465f1104096"
     inkscape:window-maximized="1"
     inkscape:window-y="48"
     inkscape:window-x="-8"
     inkscape:cy="229.8048"
     inkscape:cx="577.86942"
     inkscape:zoom="0.72340616"
     showgrid="false"
     id="namedview87"
     inkscape:window-height="961"
     inkscape:window-width="1280"
     inkscape:pageshadow="2"
     inkscape:pageopacity="0"
     guidetolerance="10"
     gridtolerance="10"
     objecttolerance="10"
     borderopacity="1"
     bordercolor="#666666"
     pagecolor="#ffffff" />
  <title
     id="title2">select_option</title>
  <polygon
     transform="translate(4.1470479,255.73462)"
     id="polygon6"
     fill="#e6e6e6"
     points="63.729,0 0,110.382 63.729,220.765 191.188,220.765 254.917,110.382 191.188,0 " />
  <path
     id="path8"
     fill="#ffffff"
     d="M 75.029568,464.10939 H 188.18157 l 56.576,-97.99246 -56.576,-97.99246 H 75.029568 l -56.576,97.99246 z" />
  <circle
     id="circle10"
     fill="#e2e2e2"
     r="5.2200599"
     cy="336.88461"
     cx="73.662941" />
  <circle
     id="circle12"
     fill="#e2e2e2"
     r="5.2200599"
     cy="366.11694"
     cx="73.662941" />
  <circle
     id="circle14"
     fill="#e2e2e2"
     r="5.2200599"
     cy="395.34924"
     cx="73.662941" />
  <rect
     id="rect16"
     fill="#e2e2e2"
     height="8.3520899"
     width="99.181061"
     y="332.70859"
     x="95.587166" />
  <rect
     id="rect18"
     fill="#e2e2e2"
     height="8.3520899"
     width="99.181061"
     y="361.94089"
     x="95.587166" />
  <rect
     id="rect20"
     fill="#e2e2e2"
     height="8.3520899"
     width="99.181061"
     y="391.17322"
     x="95.587166" />
  <polygon
     transform="translate(4.1470479,255.73462)"
     id="polygon22"
     fill="#e6e6e6"
     points="694.927,0 631.198,110.382 694.927,220.765 822.386,220.765 886.115,110.382 822.386,0 " />
  <path
     id="path24"
     fill="#ffffff"
     d="m 706.22737,464.10939 h 113.152 l 56.576,-97.99246 -56.576,-97.99246 h -113.152 l -56.576,97.99246 z" />
  <circle
     id="circle26"
     fill="#e2e2e2"
     r="5.2200599"
     cy="336.88461"
     cx="704.86072" />
  <circle
     id="circle28"
     fill="#e2e2e2"
     r="5.2200599"
     cy="366.11694"
     cx="704.86072" />
  <circle
     id="circle30"
     fill="#e2e2e2"
     r="5.2200599"
     cy="395.34924"
     cx="704.86072" />
  <rect
     id="rect32"
     fill="#e2e2e2"
     height="8.3520899"
     width="99.181061"
     y="332.70859"
     x="726.78497" />
  <rect
     id="rect34"
     fill="#e2e2e2"
     height="8.3520899"
     width="99.181061"
     y="361.94089"
     x="726.78497" />
  <rect
     id="rect36"
     fill="#e2e2e2"
     height="8.3520899"
     width="99.181061"
     y="391.17322"
     x="726.78497" />
  <polygon
     transform="translate(4.1470479,255.73462)"
     id="polygon38"
     fill="#e6e6e6"
     points="377.508,1.072 314.398,110.382 377.508,219.693 503.729,219.693 566.84,110.382 503.729,1.072 " />
  <path
     id="path40"
     fill="#ffffff"
     d="m 388.73932,463.15775 h 112.05314 l 56.02657,-97.04082 -56.02657,-97.04082 H 388.73932 l -56.02657,97.04082 z" />
  <circle
     id="circle42"
     fill="#e8cbb6"
     r="5.1693602"
     cy="337.16852"
     cx="387.38596" />
  <circle
     id="circle44"
     fill="#e8cbb6"
     r="5.1693602"
     cy="366.11694"
     cx="387.38596" />
  <circle
     id="circle46"
     fill="#e8cbb6"
     r="5.1693602"
     cy="395.06537"
     cx="387.38596" />
  <rect
     id="rect48"
     fill="#e8cbb6"
     height="8.2709799"
     width="98.217888"
     y="333.03302"
     x="409.09726" />
  <rect
     id="rect50"
     fill="#e8cbb6"
     height="8.2709799"
     width="98.217888"
     y="361.98145"
     x="409.09726" />
  <rect
     id="rect52"
     fill="#e8cbb6"
     height="8.2709799"
     width="98.217888"
     y="390.92987"
     x="409.09726" />
</svg>
