<svg width="345" height="64" viewBox="0 0 345 64" fill="none" xmlns="http://www.w3.org/2000/svg">
<rect y="0.389526" width="20.6995" height="21" fill="#FFAB48"/>
<rect y="21.3895" width="41.3991" height="21" fill="#E6859A"/>
<rect x="41.4004" y="21.3895" width="20.6995" height="42" fill="#E44263"/>
<rect x="41.4004" y="0.389526" width="20.6995" height="21" fill="#943BBE"/>
<rect y="42.3895" width="20.6995" height="21" fill="#FF9999"/>
<path d="M116.718 14.6055C115.579 14.6697 114.741 14.798 114.204 14.9905C113.698 15.183 113.35 15.552 113.16 16.0974C112.97 16.6429 112.875 17.5252 112.875 18.7444V42.6152C112.875 43.8344 112.97 44.7168 113.16 45.2622C113.35 45.8076 113.698 46.1766 114.204 46.3691C114.741 46.5616 115.579 46.69 116.718 46.7541V47.7167C115.39 47.6204 113.366 47.5723 110.646 47.5723C108.084 47.5723 106.076 47.6204 104.621 47.7167V46.7541C105.76 46.69 106.582 46.5616 107.088 46.3691C107.626 46.1766 107.989 45.8076 108.179 45.2622C108.369 44.7168 108.464 43.8344 108.464 42.6152V31.0648H93.0462V42.6152C93.0462 43.8344 93.1411 44.7168 93.3308 45.2622C93.5206 45.8076 93.8685 46.1766 94.3745 46.3691C94.9121 46.5616 95.7502 46.69 96.8887 46.7541V47.7167C95.4339 47.6204 93.4257 47.5723 90.8641 47.5723C88.1443 47.5723 86.1203 47.6204 84.792 47.7167V46.7541C85.9305 46.69 86.7528 46.5616 87.2588 46.3691C87.7964 46.1766 88.1601 45.8076 88.3498 45.2622C88.5396 44.7168 88.6345 43.8344 88.6345 42.6152V18.7444C88.6345 17.5252 88.5396 16.6429 88.3498 16.0974C88.1601 15.552 87.7964 15.183 87.2588 14.9905C86.7528 14.798 85.9305 14.6697 84.792 14.6055V13.643C86.1203 13.7392 88.1443 13.7874 90.8641 13.7874C93.3941 13.7874 95.4023 13.7392 96.8887 13.643V14.6055C95.7502 14.6697 94.9121 14.798 94.3745 14.9905C93.8685 15.183 93.5206 15.552 93.3308 16.0974C93.1411 16.6429 93.0462 17.5252 93.0462 18.7444V30.1023H108.464V18.7444C108.464 17.5252 108.369 16.6429 108.179 16.0974C107.989 15.552 107.626 15.183 107.088 14.9905C106.582 14.798 105.76 14.6697 104.621 14.6055V13.643C106.076 13.7392 108.084 13.7874 110.646 13.7874C113.366 13.7874 115.39 13.7392 116.718 13.643V14.6055Z" fill="black"/>
<path d="M126.203 48.0536C124.211 48.0536 122.724 47.5562 121.744 46.5616C120.795 45.5349 120.321 44.1232 120.321 42.3265C120.321 40.8827 120.7 39.6956 121.459 38.7651C122.25 37.8347 123.167 37.0967 124.211 36.5513C125.286 36.0058 126.693 35.4283 128.433 34.8187C130.204 34.2091 131.516 33.6476 132.37 33.1343C133.224 32.6209 133.651 31.9311 133.651 31.0648V28.081C133.651 26.2201 133.256 24.9527 132.465 24.279C131.706 23.5731 130.631 23.2202 129.239 23.2202C127.025 23.2202 125.46 23.7977 124.543 24.9527C125.175 25.1132 125.697 25.4501 126.108 25.9634C126.551 26.4768 126.772 27.1184 126.772 27.8885C126.772 28.6906 126.519 29.3323 126.013 29.8135C125.507 30.2627 124.859 30.4873 124.069 30.4873C123.183 30.4873 122.519 30.2146 122.076 29.6692C121.633 29.0916 121.412 28.4018 121.412 27.5997C121.412 26.8297 121.586 26.188 121.934 25.6746C122.313 25.1613 122.867 24.6479 123.594 24.1346C124.353 23.5892 125.318 23.14 126.488 22.787C127.658 22.4341 128.939 22.2577 130.33 22.2577C132.797 22.2577 134.663 22.8512 135.928 24.0383C136.719 24.7763 137.24 25.6746 137.493 26.7334C137.778 27.7601 137.92 29.1237 137.92 30.8242V44.2034C137.92 45.0055 138.031 45.5831 138.252 45.936C138.474 46.2889 138.853 46.4654 139.391 46.4654C139.771 46.4654 140.118 46.3852 140.435 46.2247C140.783 46.0322 141.146 45.7756 141.526 45.4547L142.048 46.2729C141.225 46.9146 140.514 47.3798 139.913 47.6685C139.344 47.9252 138.616 48.0536 137.731 48.0536C136.213 48.0536 135.153 47.6685 134.552 46.8985C133.951 46.1285 133.651 45.0857 133.651 43.7703C132.702 45.3745 131.611 46.4975 130.378 47.1391C129.144 47.7488 127.753 48.0536 126.203 48.0536ZM128.29 46.1285C130.378 46.1285 132.165 44.9093 133.651 42.4709V33.038C133.366 33.4872 132.971 33.8562 132.465 34.1449C131.959 34.4337 131.184 34.8187 130.141 35.3C128.939 35.8133 127.958 36.3106 127.199 36.7919C126.472 37.2411 125.84 37.8667 125.302 38.6689C124.764 39.471 124.495 40.4977 124.495 41.749C124.495 43.1928 124.843 44.2836 125.539 45.0216C126.235 45.7595 127.152 46.1285 128.29 46.1285Z" fill="black"/>
<path d="M161.648 23.0758C163.04 23.0758 164.242 23.0277 165.254 22.9314V23.894C164.621 23.9581 164.052 24.2469 163.546 24.7602C163.072 25.2736 162.613 26.1078 162.17 27.2628L154.39 47.9573L152.777 52.1443C152.177 53.7165 151.497 54.8394 150.738 55.5132C150.263 55.9624 149.694 56.2832 149.03 56.4757C148.366 56.6682 147.702 56.7645 147.037 56.7645C146.089 56.7645 145.314 56.5078 144.713 55.9945C144.112 55.4811 143.812 54.7752 143.812 53.8769C143.812 53.1069 144.033 52.4812 144.476 51.9999C144.919 51.5508 145.535 51.3262 146.326 51.3262C147.022 51.3262 147.591 51.5187 148.034 51.9037C148.508 52.3208 148.745 52.8823 148.745 53.5881C148.745 54.5507 148.318 55.2726 147.464 55.7538C147.528 55.7859 147.623 55.8019 147.749 55.8019C149.488 55.8019 150.832 54.5507 151.781 52.0481L153.442 47.6685L144.855 26.6372C144.318 25.5463 143.78 24.8244 143.242 24.4715C142.705 24.1186 142.167 23.9421 141.629 23.9421V22.9314C142.989 23.1239 144.539 23.2202 146.278 23.2202C147.86 23.2202 149.915 23.1239 152.445 22.9314V23.9421C151.307 23.9421 150.469 24.0383 149.931 24.2308C149.425 24.4234 149.172 24.8886 149.172 25.6265C149.172 26.3003 149.362 27.0864 149.741 27.9847L155.434 42.3265L160.7 28.4179C161.047 27.4553 161.221 26.7174 161.221 26.204C161.221 25.4661 160.937 24.9207 160.368 24.5677C159.798 24.2148 158.897 23.9902 157.664 23.894V22.9314C159.34 23.0277 160.668 23.0758 161.648 23.0758Z" fill="black"/>
<path d="M187.27 41.9415C186.701 43.7061 185.626 45.2301 184.045 46.5135C182.495 47.7648 180.613 48.3904 178.4 48.3904C176.154 48.3904 174.209 47.8771 172.565 46.8504C170.92 45.7916 169.655 44.3318 168.77 42.4709C167.916 40.5779 167.489 38.3961 167.489 35.9256C167.489 33.1343 167.932 30.7119 168.817 28.6585C169.703 26.6051 170.952 25.033 172.565 23.9421C174.178 22.8191 176.059 22.2577 178.21 22.2577C181.056 22.2577 183.238 23.14 184.756 24.9046C186.306 26.6372 187.081 29.2841 187.081 32.8455H172.233C172.138 33.7439 172.09 34.7706 172.09 35.9256C172.09 38.0432 172.422 39.8881 173.086 41.4602C173.782 43.0323 174.684 44.2515 175.79 45.1178C176.929 45.952 178.115 46.3691 179.348 46.3691C180.866 46.3691 182.21 46.0001 183.381 45.2622C184.551 44.5243 185.531 43.289 186.322 41.5565L187.27 41.9415ZM178.02 23.1721C176.534 23.1721 175.253 23.91 174.178 25.3859C173.102 26.8618 172.438 29.0435 172.185 31.9311H182.527C182.59 29.4285 182.226 27.343 181.436 25.6746C180.677 24.0063 179.538 23.1721 178.02 23.1721Z" fill="black"/>
<path d="M199.171 22.2577C200.309 22.2577 201.321 22.4341 202.207 22.787C203.092 23.14 203.804 23.5571 204.342 24.0383C204.689 24.295 204.974 24.4234 205.195 24.4234C205.765 24.4234 206.113 23.7175 206.239 22.3058H207.33C207.204 23.8779 207.14 26.6051 207.14 30.4873H206.049C205.701 28.3697 205.021 26.6211 204.009 25.2415C203.029 23.8619 201.558 23.1721 199.598 23.1721C198.459 23.1721 197.526 23.5089 196.799 24.1827C196.071 24.8244 195.708 25.7228 195.708 26.8778C195.708 28.0008 196.087 28.9473 196.846 29.7173C197.605 30.4552 198.823 31.3536 200.499 32.4124C200.784 32.5728 201.211 32.8455 201.78 33.2305C203.235 34.1931 204.405 35.0433 205.29 35.7812C206.176 36.5192 206.887 37.3694 207.425 38.332C207.994 39.2945 208.279 40.4014 208.279 41.6527C208.279 43.7703 207.488 45.4226 205.907 46.6098C204.357 47.7969 202.444 48.3904 200.167 48.3904C198.744 48.3904 197.495 48.1658 196.419 47.7167C195.724 47.3637 195.075 46.9306 194.474 46.4172C194.348 46.2889 194.206 46.2247 194.047 46.2247C193.826 46.2247 193.621 46.3852 193.431 46.706C193.273 47.0268 193.146 47.476 193.051 48.0536H191.96C192.087 46.2247 192.15 43.0163 192.15 38.4282H193.241C193.589 41.4442 194.221 43.7061 195.139 45.2141C196.056 46.69 197.621 47.4279 199.835 47.4279C200.942 47.4279 201.922 47.0589 202.776 46.321C203.63 45.583 204.057 44.428 204.057 42.8559C204.057 41.6046 203.63 40.5458 202.776 39.6795C201.954 38.8132 200.594 37.7705 198.696 36.5513C197.147 35.5567 195.945 34.7385 195.091 34.0968C194.269 33.4551 193.573 32.6691 193.004 31.7386C192.435 30.8082 192.15 29.7173 192.15 28.466C192.15 26.4447 192.814 24.9046 194.142 23.8458C195.471 22.787 197.147 22.2577 199.171 22.2577Z" fill="black"/>
<path d="M247.373 13.7874C248.796 13.7874 249.982 13.7392 250.931 13.643V14.6055C249.35 14.9905 248.1 16.3862 247.183 18.7925L236.035 47.9573H235.656H235.276L223.701 17.6856C222.942 15.6964 221.851 14.6697 220.428 14.6055V13.643C221.693 13.7392 223.385 13.7874 225.504 13.7874C228.224 13.7874 230.248 13.7392 231.576 13.643V14.6055C230.374 14.6697 229.505 14.8301 228.967 15.0868C228.461 15.3114 228.208 15.7445 228.208 16.3862C228.208 16.9316 228.398 17.6856 228.777 18.6482L237.364 41.7971L245.096 21.4395C245.729 19.7069 246.045 18.3915 246.045 17.4931C246.045 16.4985 245.697 15.7766 245.001 15.3274C244.337 14.8782 243.309 14.6376 241.918 14.6055V13.643C243.72 13.7392 245.539 13.7874 247.373 13.7874Z" fill="black"/>
<path d="M255.453 48.0536C253.461 48.0536 251.975 47.5562 250.994 46.5616C250.046 45.5349 249.571 44.1232 249.571 42.3265C249.571 40.8827 249.951 39.6956 250.71 38.7651C251.5 37.8347 252.417 37.0967 253.461 36.5513C254.536 36.0058 255.944 35.4283 257.683 34.8187C259.454 34.2091 260.767 33.6476 261.62 33.1343C262.474 32.6209 262.901 31.9311 262.901 31.0648V28.081C262.901 26.2201 262.506 24.9527 261.715 24.279C260.956 23.5731 259.881 23.2202 258.49 23.2202C256.276 23.2202 254.71 23.7977 253.793 24.9527C254.426 25.1132 254.947 25.4501 255.359 25.9634C255.801 26.4768 256.023 27.1184 256.023 27.8885C256.023 28.6906 255.77 29.3323 255.264 29.8135C254.758 30.2627 254.109 30.4873 253.319 30.4873C252.433 30.4873 251.769 30.2146 251.326 29.6692C250.884 29.0916 250.662 28.4018 250.662 27.5997C250.662 26.8297 250.836 26.188 251.184 25.6746C251.564 25.1613 252.117 24.6479 252.844 24.1346C253.603 23.5892 254.568 23.14 255.738 22.787C256.908 22.4341 258.189 22.2577 259.581 22.2577C262.047 22.2577 263.913 22.8512 265.178 24.0383C265.969 24.7763 266.491 25.6746 266.744 26.7334C267.028 27.7601 267.171 29.1237 267.171 30.8242V44.2034C267.171 45.0055 267.281 45.5831 267.503 45.936C267.724 46.2889 268.104 46.4654 268.641 46.4654C269.021 46.4654 269.369 46.3852 269.685 46.2247C270.033 46.0322 270.396 45.7756 270.776 45.4547L271.298 46.2729C270.476 46.9146 269.764 47.3798 269.163 47.6685C268.594 47.9252 267.866 48.0536 266.981 48.0536C265.463 48.0536 264.403 47.6685 263.803 46.8985C263.202 46.1285 262.901 45.0857 262.901 43.7703C261.952 45.3745 260.861 46.4975 259.628 47.1391C258.395 47.7488 257.003 48.0536 255.453 48.0536ZM257.541 46.1285C259.628 46.1285 261.415 44.9093 262.901 42.4709V33.038C262.617 33.4872 262.221 33.8562 261.715 34.1449C261.209 34.4337 260.434 34.8187 259.391 35.3C258.189 35.8133 257.209 36.3106 256.45 36.7919C255.722 37.2411 255.09 37.8667 254.552 38.6689C254.015 39.471 253.746 40.4977 253.746 41.749C253.746 43.1928 254.094 44.2836 254.789 45.0216C255.485 45.7595 256.402 46.1285 257.541 46.1285Z" fill="black"/>
<path d="M280.266 43.2409C280.266 44.5563 280.535 45.4708 281.072 45.9841C281.61 46.4654 282.543 46.706 283.871 46.706V47.7167C280.962 47.5883 279.048 47.5242 278.131 47.5242C277.214 47.5242 275.301 47.5883 272.391 47.7167V46.706C273.719 46.706 274.652 46.4654 275.19 45.9841C275.728 45.4708 275.996 44.5563 275.996 43.2409V15.7606C275.996 14.2847 275.728 13.2098 275.19 12.5361C274.652 11.8623 273.719 11.5254 272.391 11.5254V10.5147C273.371 10.611 274.352 10.6591 275.332 10.6591C277.325 10.6591 278.969 10.4345 280.266 9.98535V43.2409Z" fill="black"/>
<path d="M293.839 43.2409C293.839 44.5563 294.108 45.4708 294.646 45.9841C295.183 46.4654 296.116 46.706 297.445 46.706V47.7167C294.535 47.5883 292.622 47.5242 291.705 47.5242C290.788 47.5242 288.874 47.5883 285.965 47.7167V46.706C287.293 46.706 288.226 46.4654 288.764 45.9841C289.301 45.4708 289.57 44.5563 289.57 43.2409V15.7606C289.57 14.2847 289.301 13.2098 288.764 12.5361C288.226 11.8623 287.293 11.5254 285.965 11.5254V10.5147C286.945 10.611 287.925 10.6591 288.906 10.6591C290.898 10.6591 292.543 10.4345 293.839 9.98535V43.2409Z" fill="black"/>
<path d="M319.995 41.9415C319.426 43.7061 318.351 45.2301 316.769 46.5135C315.22 47.7648 313.338 48.3904 311.124 48.3904C308.879 48.3904 306.934 47.8771 305.289 46.8504C303.645 45.7916 302.38 44.3318 301.494 42.4709C300.64 40.5779 300.214 38.3961 300.214 35.9256C300.214 33.1343 300.656 30.7119 301.542 28.6585C302.427 26.6051 303.677 25.033 305.289 23.9421C306.902 22.8191 308.784 22.2577 310.935 22.2577C313.781 22.2577 315.963 23.14 317.481 24.9046C319.031 26.6372 319.805 29.2841 319.805 32.8455H304.957C304.862 33.7439 304.815 34.7706 304.815 35.9256C304.815 38.0432 305.147 39.8881 305.811 41.4602C306.507 43.0323 307.408 44.2515 308.515 45.1178C309.654 45.952 310.84 46.3691 312.073 46.3691C313.591 46.3691 314.935 46.0001 316.105 45.2622C317.275 44.5243 318.256 43.289 319.046 41.5565L319.995 41.9415ZM310.745 23.1721C309.258 23.1721 307.978 23.91 306.902 25.3859C305.827 26.8618 305.163 29.0435 304.91 31.9311H315.251C315.315 29.4285 314.951 27.343 314.16 25.6746C313.401 24.0063 312.263 23.1721 310.745 23.1721Z" fill="black"/>
<path d="M341.394 23.0758C342.786 23.0758 343.988 23.0277 345 22.9314V23.894C344.367 23.9581 343.798 24.2469 343.292 24.7602C342.817 25.2736 342.359 26.1078 341.916 27.2628L334.136 47.9573L332.523 52.1443C331.922 53.7165 331.242 54.8394 330.483 55.5132C330.009 55.9624 329.44 56.2832 328.776 56.4757C328.112 56.6682 327.447 56.7645 326.783 56.7645C325.835 56.7645 325.06 56.5078 324.459 55.9945C323.858 55.4811 323.558 54.7752 323.558 53.8769C323.558 53.1069 323.779 52.4812 324.222 51.9999C324.664 51.5508 325.281 51.3262 326.072 51.3262C326.768 51.3262 327.337 51.5187 327.78 51.9037C328.254 52.3208 328.491 52.8823 328.491 53.5881C328.491 54.5507 328.064 55.2726 327.21 55.7538C327.273 55.7859 327.368 55.8019 327.495 55.8019C329.234 55.8019 330.578 54.5507 331.527 52.0481L333.187 47.6685L324.601 26.6372C324.064 25.5463 323.526 24.8244 322.988 24.4715C322.451 24.1186 321.913 23.9421 321.375 23.9421V22.9314C322.735 23.1239 324.285 23.2202 326.024 23.2202C327.606 23.2202 329.661 23.1239 332.191 22.9314V23.9421C331.053 23.9421 330.215 24.0383 329.677 24.2308C329.171 24.4234 328.918 24.8886 328.918 25.6265C328.918 26.3003 329.108 27.0864 329.487 27.9847L335.18 42.3265L340.445 28.4179C340.793 27.4553 340.967 26.7174 340.967 26.204C340.967 25.4661 340.683 24.9207 340.113 24.5677C339.544 24.2148 338.643 23.9902 337.409 23.894V22.9314C339.086 23.0277 340.414 23.0758 341.394 23.0758Z" fill="black"/>
</svg>
