<?xml version="1.0" encoding="UTF-8" standalone="no"?>
<svg
   xmlns:dc="http://purl.org/dc/elements/1.1/"
   xmlns:cc="http://creativecommons.org/ns#"
   xmlns:rdf="http://www.w3.org/1999/02/22-rdf-syntax-ns#"
   xmlns:svg="http://www.w3.org/2000/svg"
   xmlns="http://www.w3.org/2000/svg"
   xmlns:sodipodi="http://sodipodi.sourceforge.net/DTD/sodipodi-0.dtd"
   xmlns:inkscape="http://www.inkscape.org/namespaces/inkscape"
   inkscape:version="1.0 (4035a4fb49, 2020-05-01)"
   sodipodi:docname="sklep.baseCompLight.svg"
   version="1.1"
   viewBox="0 0 808.77834 560.41822"
   height="560.41822"
   width="808.77834"
   data-name="Layer 1"
   id="e947267e-2fd0-4612-8553-18e563890315">
  <metadata
     id="metadata97">
    <rdf:RDF>
      <cc:Work
         rdf:about="">
        <dc:format>image/svg+xml</dc:format>
        <dc:type
           rdf:resource="http://purl.org/dc/dcmitype/StillImage" />
        <dc:title></dc:title>
      </cc:Work>
    </rdf:RDF>
  </metadata>
  <defs
     id="defs95" />
  <sodipodi:namedview
     inkscape:current-layer="e947267e-2fd0-4612-8553-18e563890315"
     inkscape:window-maximized="1"
     inkscape:window-y="48"
     inkscape:window-x="-8"
     inkscape:cy="310.31332"
     inkscape:cx="257.71041"
     inkscape:zoom="0.92738508"
     showgrid="false"
     id="namedview93"
     inkscape:window-height="961"
     inkscape:window-width="1280"
     inkscape:pageshadow="2"
     inkscape:pageopacity="0"
     guidetolerance="10"
     gridtolerance="10"
     objecttolerance="10"
     borderopacity="1"
     bordercolor="#666666"
     pagecolor="#ffffff"
     inkscape:document-rotation="0" />
  <path
     sodipodi:insensitive="true"
     id="path6"
     fill="#2f2e41"
     transform="translate(-195.61083,-169.79089)"
     d="M 963.14532,730.20911 H 220.51173 a 24.9009,24.9009 0 0 1 -24.9009,-24.9009 v 0 q 403.8068,-46.93008 792.43539,0 v 0 a 24.90091,24.90091 0 0 1 -24.9009,24.9009 z" />
  <path
     sodipodi:insensitive="true"
     id="path8"
     fill="#3f3d56"
     transform="translate(-195.61083,-169.79089)"
     d="m 988.04622,706.77294 -792.43539,-1.46476 91.8405,-154.53218 0.43941,-0.73238 v -340.5715 a 31.47505,31.47505 0 0 1 31.47768,-31.47769 h 540.52592 a 31.47506,31.47506 0 0 1 31.47766,31.47769 v 342.915 z" />
  <path
     sodipodi:insensitive="true"
     id="path10"
     fill="#ffffff"
     d="m 318.65071,199.96584 a 10.26484,10.26484 0 0 0 -10.25333,10.25332 v 310.52921 a 10.2653,10.2653 0 0 0 10.25333,10.25332 h 546.35563 a 10.26576,10.26576 0 0 0 10.25333,-10.25332 V 210.21916 a 10.2653,10.2653 0 0 0 -10.25333,-10.25332 z"
     transform="translate(-195.61083,-169.79089)" />
  <path
     sodipodi:insensitive="true"
     id="path12"
     fill="#2f2e41"
     transform="translate(-195.61083,-169.79089)"
     d="m 322.2414,572.015 a 4.40641,4.40641 0 0 0 -3.99234,2.55761 l -28.29891,61.51994 a 4.39409,4.39409 0 0 0 3.99162,6.231 H 889.0529 a 4.39378,4.39378 0 0 0 3.92939,-6.35969 l -30.76,-61.51994 a 4.372,4.372 0 0 0 -3.92939,-2.42887 z" />
  <circle
     sodipodi:insensitive="true"
     id="circle14"
     fill="#ffffff"
     r="6.5914202"
     cy="18.45686"
     cx="394.02054" />
  <path
     sodipodi:insensitive="true"
     id="path16"
     fill="#2f2e41"
     transform="translate(-195.61083,-169.79089)"
     d="m 531.13681,654.04157 a 4.401,4.401 0 0 0 -4.24266,3.25136 l -7.09851,26.36569 a 4.39387,4.39387 0 0 0 4.24266,5.5372 H 659.03585 A 4.39328,4.39328 0 0 0 663.187,683.364 l -9.12614,-26.36568 a 4.39659,4.39659 0 0 0 -4.15254,-2.9567 z" />
  <polygon
     sodipodi:insensitive="true"
     id="polygon18"
     fill="#2f2e41"
     points="695.761,380.985 91.84,380.985 92.295,380.253 92.295,375.126 695.761,375.126 " />
  <path
     sodipodi:insensitive="true"
     id="path88"
     fill="#e8cbb6"
     transform="translate(-195.61083,-169.79089)"
     d="m 816.82968,558.3384 a 1.07172,1.07172 0 0 0 -1.03315,0.79175 l -1.72859,6.42045 a 1.07,1.07 0 0 0 1.03315,1.34839 H 847.975 a 1.06984,1.06984 0 0 0 1.01086,-1.42015 l -2.22236,-6.42044 a 1.07062,1.07062 0 0 0 -1.0112,-0.72 z" />
  <path
     sodipodi:insensitive="true"
     id="path90"
     fill="#e8cbb6"
     transform="translate(-195.61083,-169.79089)"
     d="m 768.82968,558.3384 a 1.07172,1.07172 0 0 0 -1.03315,0.79175 l -1.72859,6.42045 a 1.07,1.07 0 0 0 1.03315,1.34839 H 799.975 a 1.06984,1.06984 0 0 0 1.01086,-1.42015 l -2.22236,-6.42044 a 1.07062,1.07062 0 0 0 -1.0112,-0.72 z" />
  <g
     transform="matrix(0.95843904,0,0,0.95843904,-13.772454,-39.412452)"
     id="g73">
    <path
       style="stroke-width:0.935831"
       id="path68"
       fill="#e8cbb6"
       d="m 517.34551,348.55304 -63.9406,-45.22464 c 21.56493,-21.00727 41.17878,-50.91969 59.93627,-84.74057 l 63.9406,45.22465 c -25.54977,29.01689 -47.19318,57.49375 -59.93627,84.74056 z" />
    <circle
       style="stroke-width:0.935831"
       id="circle70"
       fill="#ffffff"
       r="18.871742"
       cy="281.53174"
       cx="517.36316" />
    <path
       style="stroke-width:0.935831"
       id="path80"
       fill="#e6e6e6"
       d="m 431.01285,240.13017 h -13.13841 a 1.7419039,1.7419039 0 0 0 -1.74191,1.74189 v 5.76685 a 1.7419039,1.7419039 0 0 0 1.74191,1.74188 h 2.17722 v 8.64071 h 8.78397 v -8.64071 h 2.17722 a 1.7418852,1.7418852 0 0 0 1.74189,-1.74188 v -5.76685 a 1.7418945,1.7418945 0 0 0 -1.74189,-1.74189 z" />
    <path
       style="stroke-width:0.935831"
       id="path82"
       fill="#e8cbb6"
       d="m 444.1724,292.90831 a 67.546574,67.546574 0 0 1 -11.75111,-40.04765 1.4245629,1.4245629 0 0 0 -1.11195,-1.42161 v -2.49185 h -13.87593 v 2.4572 h -0.19119 a 1.4237954,1.4237954 0 0 0 -1.42194,1.42565 q 7e-5,0.0519 0.004,0.10362 1.63975,22.85767 -11.07408,40.99663 a 3.923846,3.923846 0 0 0 -0.71014,2.3779 l 1.51726,46.93327 a 4.0628827,4.0628827 0 0 0 4.02815,3.92132 h 31.38524 a 4.0643238,4.0643238 0 0 0 4.03056,-3.99047 l 0.5847,-45.56837 a 8.2239156,8.2239156 0 0 0 -1.41349,-4.69564 z" />
    <path
       id="path84"
       style="isolation:isolate;stroke-width:0.935831"
       opacity="0.2"
       d="m 428.27397,242.00923 a 3.7580631,3.7580631 0 0 1 -7.51612,0" />
    <path
       style="stroke-width:0.935831"
       id="path86"
       fill="#ffffff"
       d="m 439.20405,308.49807 h -27.31843 a 2.8046923,2.8046923 0 0 0 -2.7721,3.23119 l 4.1282,26.83335 h 23.70472 l 5.01429,-26.74293 a 2.8047859,2.8047859 0 0 0 -2.75668,-3.32161 z" />
    <path
       style="stroke-width:0.935831"
       id="path88-1"
       fill="#e8cbb6"
       d="m 393.52675,348.47911 h -78.31776 c 5.47551,-29.60355 4.2158,-65.35085 0,-103.7946 h 78.31776 c -4.10363,38.44387 -5.32992,74.19111 0,103.7946 z" />
    <circle
       style="stroke-width:0.935831"
       id="circle90"
       fill="#ffffff"
       r="18.871742"
       cy="293.75104"
       cx="354.83969" />
    <polygon
       transform="matrix(0.93583329,0,0,0.93583329,-228.37749,-285.56654)"
       id="polygon120"
       fill="#3f3d56"
       points="467.529,418.694 467.529,406.752 525.258,406.752 581.559,672.902 837.751,672.902 837.751,684.845 571.879,684.845 515.578,418.694 " />
    <circle
       style="stroke-width:0.935831"
       id="circle122"
       fill="#3f3d56"
       r="23.949265"
       cy="376.88809"
       cx="343.26785" />
    <circle
       style="stroke-width:0.935831"
       id="circle124"
       fill="#3f3d56"
       r="23.949265"
       cy="376.88809"
       cx="522.08905" />
    <path
       style="stroke-width:0.935831"
       id="path126"
       fill="#3f3d56"
       d="M 551.08128,350.07098 H 309.00141 L 266.28875,138.99206 h 324.8758 a 11.478463,11.478463 0 0 1 11.33848,13.25784 L 562.4182,340.37589 a 11.420666,11.420666 0 0 1 -11.33692,9.69509 z m -239.45106,-3.19324 h 239.45106 a 8.2406479,8.2406479 0 0 0 8.18111,-6.99768 l 40.08482,-188.12598 a 8.2822554,8.2822554 0 0 0 -8.18266,-9.56879 H 270.16491 Z" />
    <polygon
       transform="matrix(0.93583329,0,0,0.93583329,-228.37749,-285.56654)"
       id="polygon128"
       fill="#3f3d56"
       points="627.879,677.943 624.513,678.499 594.623,455.653 597.989,455.097 " />
    <polygon
       transform="matrix(0.93583329,0,0,0.93583329,-228.37749,-285.56654)"
       id="polygon130"
       fill="#3f3d56"
       points="819.729,455.648 790.712,676.788 787.343,676.242 816.36,455.102 " />
    <rect
       style="stroke-width:0.935831"
       id="rect132"
       fill="#3f3d56"
       height="208.54648"
       width="3.1932316"
       y="140.58865"
       x="434.30002" />
    <rect
       style="stroke-width:0.935831"
       id="rect134"
       fill="#3f3d56"
       transform="rotate(-89.86127)"
       height="309.10168"
       width="3.1932411"
       y="283.07516"
       x="-198.97871" />
    <rect
       style="stroke-width:0.935831"
       id="rect136"
       fill="#3f3d56"
       transform="rotate(-0.39166)"
       height="3.1933064"
       width="271.55814"
       y="299.00134"
       x="296.29996" />
    <ellipse
       style="stroke-width:0.935831"
       id="ellipse138"
       fill="#3f3d56"
       ry="9.5797043"
       rx="17.562792"
       cy="99.076599"
       cx="213.94183" />
  </g>
</svg>
