<?xml version="1.0" encoding="UTF-8" standalone="no"?>
<svg
   xmlns:dc="http://purl.org/dc/elements/1.1/"
   xmlns:cc="http://creativecommons.org/ns#"
   xmlns:rdf="http://www.w3.org/1999/02/22-rdf-syntax-ns#"
   xmlns:svg="http://www.w3.org/2000/svg"
   xmlns="http://www.w3.org/2000/svg"
   xmlns:sodipodi="http://sodipodi.sourceforge.net/DTD/sodipodi-0.dtd"
   xmlns:inkscape="http://www.inkscape.org/namespaces/inkscape"
   inkscape:version="1.0 (4035a4fb49, 2020-05-01)"
   sodipodi:docname="wizyt.baseCompLight.svg"
   version="1.1"
   viewBox="0 0 808.77834 560.41822"
   height="560.41822"
   width="808.77834"
   data-name="Layer 1"
   id="e947267e-2fd0-4612-8553-18e563890315">
  <metadata
     id="metadata97">
    <rdf:RDF>
      <cc:Work
         rdf:about="">
        <dc:format>image/svg+xml</dc:format>
        <dc:type
           rdf:resource="http://purl.org/dc/dcmitype/StillImage" />
      </cc:Work>
    </rdf:RDF>
  </metadata>
  <defs
     id="defs95" />
  <sodipodi:namedview
     inkscape:current-layer="e947267e-2fd0-4612-8553-18e563890315"
     inkscape:window-maximized="1"
     inkscape:window-y="48"
     inkscape:window-x="-8"
     inkscape:cy="253.83681"
     inkscape:cx="175.68771"
     inkscape:zoom="0.46369254"
     showgrid="false"
     id="namedview93"
     inkscape:window-height="961"
     inkscape:window-width="1280"
     inkscape:pageshadow="2"
     inkscape:pageopacity="0"
     guidetolerance="10"
     gridtolerance="10"
     objecttolerance="10"
     borderopacity="1"
     bordercolor="#666666"
     pagecolor="#ffffff" />
  <path
     id="path6"
     fill="#2f2e41"
     transform="translate(-195.61083 -169.79089)"
     d="M963.14532,730.20911H220.51173a24.9009,24.9009,0,0,1-24.9009-24.9009v0q403.8068-46.93008,792.43539,0v0A24.90091,24.90091,0,0,1,963.14532,730.20911Z" />
  <path
     id="path8"
     fill="#3f3d56"
     transform="translate(-195.61083 -169.79089)"
     d="M988.04622,706.77294l-792.43539-1.46476L287.45133,550.776l.43941-.73238V209.47212a31.47505,31.47505,0,0,1,31.47768-31.47769H859.89434A31.47506,31.47506,0,0,1,891.372,209.47212v342.915Z" />
  <path
     id="path10"
     fill="#fff"
     transform="translate(-195.61083 -169.79089)"
     d="M318.65071,199.96584a10.26484,10.26484,0,0,0-10.25333,10.25332V520.74837a10.2653,10.2653,0,0,0,10.25333,10.25332H865.00634a10.26576,10.26576,0,0,0,10.25333-10.25332V210.21916a10.2653,10.2653,0,0,0-10.25333-10.25332Z" />
  <path
     id="path12"
     fill="#2f2e41"
     transform="translate(-195.61083 -169.79089)"
     d="M322.2414,572.015a4.40641,4.40641,0,0,0-3.99234,2.55761l-28.29891,61.51994a4.39409,4.39409,0,0,0,3.99162,6.231H889.0529a4.39378,4.39378,0,0,0,3.92939-6.35969l-30.76-61.51994a4.372,4.372,0,0,0-3.92939-2.42887Z" />
  <circle
     id="circle14"
     fill="#fff"
     r="6.59142"
     cy="18.45686"
     cx="394.02055" />
  <path
     id="path16"
     fill="#2f2e41"
     transform="translate(-195.61083 -169.79089)"
     d="M531.13681,654.04157a4.401,4.401,0,0,0-4.24266,3.25136l-7.09851,26.36569a4.39387,4.39387,0,0,0,4.24266,5.5372H659.03585A4.39328,4.39328,0,0,0,663.187,683.364l-9.12614-26.36568a4.39659,4.39659,0,0,0-4.15254-2.9567Z" />
  <polygon
     id="polygon18"
     fill="#2f2e41"
     points="695.761 375.126 695.761 380.985 91.84 380.985 92.295 380.253 92.295 375.126 695.761 375.126" />
  <path
     id="path20"
     fill="#e6e6e6"
     transform="translate(-195.61083 -169.79089)"
     d="M703.61465,254.82985H561.125v2.60257H703.61465a26.45081,26.45081,0,0,1,0,52.90163H488.00326a26.45081,26.45081,0,0,1,0-52.90163h8.05743v-2.60257h-8.05743a29.05339,29.05339,0,0,0,0,58.10677H703.61465a29.05339,29.05339,0,1,0,0-58.10677Z" />
  <path
     id="path22"
     fill="#e6e6e6"
     transform="translate(-195.61083 -169.79089)"
     d="M703.61465,344.61863H561.125v2.60257H703.61465a26.45082,26.45082,0,0,1,0,52.90163H488.00326a26.45081,26.45081,0,0,1,0-52.90163h8.05743v-2.60257h-8.05743a29.05339,29.05339,0,0,0,0,58.10677H703.61465a29.05339,29.05339,0,1,0,0-58.10677Z" />
  <path
     id="path24"
     fill="#e6e6e6"
     transform="translate(-195.61083 -169.79089)"
     d="M703.61465,434.40741H561.125V437.01H703.61465a26.45081,26.45081,0,1,1,0,52.90162H488.00326a26.45081,26.45081,0,0,1,0-52.90162h8.05743v-2.60258h-8.05743a29.05339,29.05339,0,0,0,0,58.10678H703.61465a29.05339,29.05339,0,1,0,0-58.10678Z" />
  <path
     fill="#3f3d56"
     transform="translate(-195.61083 -169.79089)"
     d="M512.144,247.95428a7.73852,7.73852,0,0,0,0,15.475h33.945a7.73852,7.73852,0,1,0,.25408-15.475q-.12705-.00215-.25408,0Z"
     data-name="Path 40"
     id="ab287899-84e3-434f-b92d-b2aaa12c9990" />
  <path
     fill="#3f3d56"
     transform="translate(-195.61083 -169.79089)"
     d="M512.144,339.04435a7.73852,7.73852,0,0,0,0,15.475h33.945a7.73852,7.73852,0,0,0,.25408-15.475q-.12705-.00216-.25408,0Z"
     data-name="Path 40"
     id="af2a4b37-a3ed-4662-953e-6f9b285406f1" />
  <path
     fill="#3f3d56"
     transform="translate(-195.61083 -169.79089)"
     d="M512.144,427.53184a7.73853,7.73853,0,0,0,0,15.475h33.945a7.73853,7.73853,0,0,0,.25408-15.475q-.12705-.00214-.25408,0Z"
     data-name="Path 40"
     id="ff7e389f-e1f1-4104-a8c8-8a888f7bdbd5" />
  <path
     fill="#e8cbb6"
     transform="translate(-195.61083 -169.79089)"
     d="M498.68028,276.14576a7.73852,7.73852,0,0,0,0,15.475H692.68356a7.73852,7.73852,0,1,0,.25407-15.475q-.127-.00214-.25407,0Z"
     data-name="Path 40"
     id="ab3f55ca-45f9-4d6f-a8ad-e44fa73330dd" />
  <path
     fill="#e8cbb6"
     transform="translate(-195.61083 -169.79089)"
     d="M498.68028,365.93454a7.73853,7.73853,0,0,0,0,15.475H692.68356a7.73853,7.73853,0,1,0,.25407-15.475q-.127-.00215-.25407,0Z"
     data-name="Path 40"
     id="b755e68c-1f13-420d-a9db-7573ff270e8f" />
  <path
     fill="#e6e6e6"
     transform="translate(-195.61083 -169.79089)"
     d="M498.68028,455.72332a7.73853,7.73853,0,0,0,0,15.475H692.68356a7.73853,7.73853,0,1,0,.25407-15.475q-.127-.00215-.25407,0Z"
     data-name="Path 40"
     id="f0f56a0b-ed67-4282-9bfe-4d2fc6a8304e" />
  <circle
     id="circle32"
     fill="#e8cbb6"
     r="15.49522"
     cy="113.48282"
     cx="231.01453" />
  <polygon
     id="polygon34"
     fill="#fff"
     points="229.577 119.849 225.063 114.045 227.688 112.003 229.826 114.751 237.046 107.129 239.461 109.417 229.577 119.849" />
  <circle
     id="circle36"
     fill="#e8cbb6"
     r="15.49522"
     cy="203.2716"
     cx="231.01453" />
  <polygon
     id="polygon38"
     fill="#fff"
     points="229.577 209.638 225.063 203.834 227.688 201.792 229.826 204.54 237.046 196.918 239.461 199.206 229.577 209.638" />
  <circle
     id="circle40"
     fill="#e6e6e6"
     r="15.49522"
     cy="293.06039"
     cx="231.01453" />
  <circle
     id="circle42"
     fill="#e6e6e6"
     r="15.49522"
     cy="113.48282"
     cx="570.65036" />
  <circle
     id="circle44"
     fill="#e6e6e6"
     r="15.49522"
     cy="203.2716"
     cx="570.65036" />
  <circle
     id="circle46"
     fill="#e6e6e6"
     r="15.49522"
     cy="293.06039"
     cx="570.65036" />
  <polygon
     id="polygon48"
     fill="#fff"
     points="229.577 299.427 225.063 293.623 227.688 291.581 229.826 294.329 237.046 286.707 239.461 288.994 229.577 299.427" />
  <rect
     id="rect50"
     fill="#fff"
     transform="translate(-171.54967 454.84531) rotate(-45)"
     height="12.25353"
     width="1.82392"
     y="277.14695"
     x="765.12121" />
  <rect
     id="rect52"
     fill="#fff"
     transform="translate(-171.4161 455.16777) rotate(-45)"
     height="1.82392"
     width="12.25353"
     y="282.36175"
     x="760.36243" />
  <rect
     id="rect54"
     fill="#fff"
     transform="translate(-235.03993 481.14383) rotate(-45)"
     height="12.25353"
     width="1.82392"
     y="366.93573"
     x="765.12121" />
  <rect
     id="rect56"
     fill="#fff"
     transform="translate(-234.90636 481.46629) rotate(-45)"
     height="1.82392"
     width="12.25353"
     y="372.15053"
     x="760.36243" />
  <rect
     id="rect58"
     fill="#fff"
     transform="translate(-298.53019 507.44236) rotate(-45)"
     height="12.25353"
     width="1.82392"
     y="456.72451"
     x="765.12121" />
  <rect
     id="rect60"
     fill="#fff"
     transform="translate(-298.39662 507.76482) rotate(-45)"
     height="1.82392"
     width="12.25353"
     y="461.93932"
     x="760.36243" />
  <path
     id="path88"
     fill="#e8cbb6"
     transform="translate(-195.61083 -169.79089)"
     d="M816.82968,558.3384a1.07172,1.07172,0,0,0-1.03315.79175l-1.72859,6.42045a1.07,1.07,0,0,0,1.03315,1.34839H847.975a1.06984,1.06984,0,0,0,1.01086-1.42015l-2.22236-6.42044a1.07062,1.07062,0,0,0-1.0112-.72Z" />
  <path
     id="path90"
     fill="#e8cbb6"
     transform="translate(-195.61083 -169.79089)"
     d="M768.82968,558.3384a1.07172,1.07172,0,0,0-1.03315.79175l-1.72859,6.42045a1.07,1.07,0,0,0,1.03315,1.34839H799.975a1.06984,1.06984,0,0,0,1.01086-1.42015l-2.22236-6.42044a1.07062,1.07062,0,0,0-1.0112-.72Z" />
</svg>
