<?xml version="1.0" encoding="UTF-8" standalone="no"?>
<svg
   xmlns:dc="http://purl.org/dc/elements/1.1/"
   xmlns:cc="http://creativecommons.org/ns#"
   xmlns:rdf="http://www.w3.org/1999/02/22-rdf-syntax-ns#"
   xmlns:svg="http://www.w3.org/2000/svg"
   xmlns="http://www.w3.org/2000/svg"
   xmlns:sodipodi="http://sodipodi.sourceforge.net/DTD/sodipodi-0.dtd"
   xmlns:inkscape="http://www.inkscape.org/namespaces/inkscape"
   inkscape:version="1.0 (4035a4fb49, 2020-05-01)"
   sodipodi:docname="wplogo.svg"
   xml:space="preserve"
   style="enable-background:new 0 0 512 512;"
   viewBox="0 0 512 512"
   y="0px"
   x="0px"
   id="Layer_1"
   version="1.1"><metadata
   id="metadata39"><rdf:RDF><cc:Work
       rdf:about=""><dc:format>image/svg+xml</dc:format><dc:type
         rdf:resource="http://purl.org/dc/dcmitype/StillImage" /><dc:title></dc:title></cc:Work></rdf:RDF></metadata><defs
   id="defs37" /><sodipodi:namedview
   inkscape:current-layer="Layer_1"
   inkscape:window-maximized="1"
   inkscape:window-y="48"
   inkscape:window-x="-8"
   inkscape:cy="311.72789"
   inkscape:cx="219.77687"
   inkscape:zoom="1.4355469"
   showgrid="false"
   id="namedview35"
   inkscape:window-height="961"
   inkscape:window-width="1280"
   inkscape:pageshadow="2"
   inkscape:pageopacity="0"
   guidetolerance="10"
   gridtolerance="10"
   objecttolerance="10"
   borderopacity="1"
   bordercolor="#666666"
   pagecolor="#ffffff" />
<path
   id="path2"
   d="M0.009,255.99c0,101.32,58.883,188.901,144.287,230.386L22.176,151.813  C7.977,183.649,0.009,218.88,0.009,255.99z M428.815,243.077c0-31.647-11.368-53.55-21.106-70.596  c-12.974-21.1-25.137-38.943-25.137-60.041c0-23.533,17.833-45.433,42.981-45.433c1.14,0,2.22,0.137,3.316,0.207  C383.331,25.484,322.644,0,256,0C166.566,0,87.888,45.891,42.11,115.374c6.016,0.2,11.679,0.321,16.478,0.321  c26.769,0,68.233-3.253,68.233-3.253c13.795-0.812,15.416,19.466,1.632,21.096c0,0-13.873,1.623-29.292,2.427l93.216,277.297  l56.025-168.016l-39.881-109.283c-13.795-0.804-26.846-2.427-26.846-2.427c-13.795-0.819-12.182-21.91,1.621-21.096  c0,0,42.267,3.253,67.422,3.253c26.771,0,68.233-3.253,68.233-3.253c13.795-0.812,15.427,19.466,1.632,21.096  c0,0-13.889,1.623-29.29,2.427l92.506,275.18l25.535-85.306C422.315,292.567,428.815,264.987,428.815,243.077z M260.499,278.383  l-76.814,223.186C206.621,508.314,230.878,512,256,512c29.817,0,58.409-5.147,85.014-14.513c-0.674-1.097-1.312-2.26-1.83-3.529  L260.499,278.383z M480.638,133.183c1.104,8.149,1.727,16.893,1.727,26.32c0,25.967-4.871,55.17-19.476,91.687l-78.186,226.063  c76.114-44.373,127.288-126.824,127.288-221.262C511.991,211.48,500.613,169.639,480.638,133.183z"
   style="fill:#e8cbb6;fill-opacity:1" />
<g
   id="g4">
</g>
<g
   id="g6">
</g>
<g
   id="g8">
</g>
<g
   id="g10">
</g>
<g
   id="g12">
</g>
<g
   id="g14">
</g>
<g
   id="g16">
</g>
<g
   id="g18">
</g>
<g
   id="g20">
</g>
<g
   id="g22">
</g>
<g
   id="g24">
</g>
<g
   id="g26">
</g>
<g
   id="g28">
</g>
<g
   id="g30">
</g>
<g
   id="g32">
</g>
</svg>
